<?xml version="1.0" encoding="utf-8"?>
<!-- Generator: Adobe Illustrator 24.0.1, SVG Export Plug-In . SVG Version: 6.00 Build 0)  -->
<svg version="1.1" id="Layer_1" xmlns="http://www.w3.org/2000/svg" xmlns:xlink="http://www.w3.org/1999/xlink" x="0px" y="0px"
	 viewBox="0 0 400 400" style="enable-background:new 0 0 400 400;" xml:space="preserve">
<style type="text/css">
	.st0{opacity:0.78;fill:#D02E1F;}
</style>
<path class="st0" d="M173.3,360.2c-47.8-49.6-47.6-168-9.9-212c-4.9,25.6,12.6,31.4,9.9,8.2c-1.1-9.7-10.1-32.2-11.5-56.4
	c-1.9-31.8,7.5-66.4,47-78.1c-30.4,24.5-11,102.4,15.4,99.8c7.8,0.1,2.3-25.8,6.9-29.7c20.9,19.5,28.7,98,22.7,163.3
	c-2,21.4,4.1,14.4,8.4,3.7c2.9-7.1,3.3-18.8,5.2-17.7c4,2.3,2.1,124.1-42.9,131.6V220.8h-51.1V360.2z"/>
</svg>
